#define paint_width 128
#define paint_height 128
static unsigned char paint_bits[] = {
   0x00, 0x00, 0x00, 0x00, 0x00, 0x00, 0x00, 0x00, 0x00, 0x00, 0x00, 0x00,
   0x00, 0x00, 0x00, 0x00, 0x00, 0x00, 0x00, 0x00, 0x00, 0x00, 0x00, 0x00,
   0x00, 0x00, 0x00, 0x00, 0x00, 0x00, 0x00, 0x00, 0x00, 0x00, 0x00, 0x00,
   0x00, 0x00, 0x00, 0x00, 0x00, 0x00, 0x00, 0x00, 0x00, 0x00, 0x00, 0x00,
   0x00, 0x00, 0x00, 0x00, 0x00, 0x00, 0x00, 0x00, 0x00, 0x00, 0x00, 0x00,
   0x00, 0x00, 0x00, 0x00, 0x00, 0x00, 0x00, 0x00, 0x00, 0x00, 0x00, 0x00,
   0x00, 0x00, 0x00, 0x00, 0x00, 0x00, 0x00, 0x00, 0x00, 0x00, 0x00, 0x00,
   0x00, 0x00, 0x00, 0x00, 0x00, 0x00, 0x00, 0x00, 0x00, 0x00, 0x00, 0x00,
   0x00, 0x00, 0x00, 0x00, 0x00, 0x00, 0x00, 0x00, 0x00, 0x00, 0x00, 0x00,
   0x00, 0x00, 0x00, 0x00, 0x00, 0x00, 0x00, 0x00, 0x00, 0x00, 0x00, 0x00,
   0x00, 0x00, 0x00, 0x00, 0x00, 0x00, 0x00, 0x00, 0x00, 0x00, 0x00, 0x00,
   0x00, 0x00, 0x00, 0x00, 0x00, 0x00, 0x00, 0x00, 0x00, 0x00, 0x00, 0x00,
   0x00, 0x00, 0x00, 0x00, 0x00, 0x00, 0x00, 0x00, 0x00, 0x00, 0x00, 0x00,
   0x00, 0x00, 0x00, 0x00, 0x00, 0x00, 0x00, 0x00, 0x00, 0x00, 0x00, 0x00,
   0x00, 0x00, 0x00, 0x00, 0x00, 0x00, 0x00, 0x00, 0x00, 0x00, 0x00, 0x00,
   0x00, 0x00, 0x00, 0x00, 0x00, 0x00, 0x00, 0x00, 0x00, 0x00, 0x00, 0x00,
   0x00, 0x00, 0x00, 0x00, 0x00, 0x00, 0x00, 0x00, 0x00, 0x00, 0x00, 0x00,
   0x00, 0x00, 0x00, 0x00, 0x00, 0x00, 0x00, 0x00, 0x00, 0x00, 0x00, 0x00,
   0x00, 0x00, 0x00, 0x00, 0x00, 0x00, 0x00, 0x00, 0x00, 0x00, 0x00, 0x00,
   0x00, 0x00, 0x00, 0x00, 0x00, 0x00, 0x00, 0x00, 0x00, 0x00, 0x00, 0x00,
   0x00, 0x00, 0x00, 0x00, 0x00, 0x00, 0x00, 0x00, 0x00, 0x00, 0x00, 0x00,
   0x00, 0x00, 0x00, 0x00, 0x00, 0x00, 0x00, 0x00, 0x00, 0x00, 0x00, 0x38,
   0x00, 0x00, 0x00, 0x00, 0x00, 0x00, 0x00, 0x00, 0x00, 0x00, 0x00, 0x00,
   0x00, 0x00, 0x00, 0xfe, 0x00, 0x00, 0x00, 0x00, 0x00, 0x00, 0x00, 0x00,
   0x00, 0x00, 0x00, 0x00, 0x00, 0x00, 0x00, 0xff, 0x03, 0x00, 0x00, 0x00,
   0x00, 0x00, 0x00, 0x00, 0x00, 0x00, 0x00, 0x00, 0x00, 0x00, 0x80, 0xff,
   0x07, 0x00, 0x00, 0x00, 0x00, 0x00, 0x00, 0x00, 0x00, 0x00, 0x00, 0x00,
   0x00, 0x00, 0xc0, 0xff, 0x0f, 0x00, 0x00, 0x00, 0x00, 0x00, 0x00, 0x00,
   0x00, 0x00, 0x00, 0x00, 0x00, 0x00, 0xe0, 0xff, 0x1f, 0x00, 0x00, 0x00,
   0x00, 0x00, 0x00, 0x00, 0x00, 0x00, 0x00, 0x00, 0x00, 0x00, 0xe0, 0xff,
   0x1f, 0x00, 0x00, 0x00, 0x00, 0x00, 0x00, 0x00, 0x00, 0x00, 0x00, 0x00,
   0x00, 0x00, 0xe0, 0xff, 0x1f, 0x00, 0x00, 0x00, 0x00, 0x00, 0x00, 0x00,
   0x00, 0x00, 0x00, 0x00, 0x00, 0x00, 0xe0, 0xff, 0x3f, 0x00, 0x00, 0x00,
   0x00, 0x00, 0x00, 0x00, 0x00, 0x00, 0x00, 0x00, 0x00, 0x00, 0xe0, 0xff,
   0x3f, 0x00, 0x00, 0x00, 0x00, 0x00, 0x00, 0x00, 0x00, 0x00, 0x00, 0x00,
   0x00, 0x00, 0xc0, 0xff, 0x3f, 0x00, 0x00, 0x00, 0x00, 0x00, 0x00, 0x00,
   0x00, 0x00, 0x00, 0x00, 0x00, 0x00, 0xc0, 0xff, 0x1f, 0x00, 0x00, 0x00,
   0x00, 0x00, 0x00, 0x00, 0x00, 0x00, 0x00, 0x00, 0x00, 0x00, 0x80, 0xff,
   0x1f, 0x00, 0x00, 0x00, 0x00, 0x00, 0x00, 0x00, 0x00, 0x00, 0x00, 0x00,
   0x00, 0x00, 0x00, 0xff, 0x0f, 0x00, 0x00, 0x00, 0x00, 0x00, 0x00, 0x00,
   0x00, 0x00, 0x00, 0x00, 0x00, 0x00, 0x00, 0xfc, 0x03, 0x00, 0x00, 0x00,
   0x00, 0x00, 0x00, 0x00, 0x00, 0x00, 0x00, 0x00, 0x0c, 0x00, 0x00, 0x00,
   0x00, 0x00, 0x00, 0x00, 0x00, 0x00, 0x00, 0x00, 0x00, 0x00, 0x00, 0xc0,
   0x3f, 0x00, 0x00, 0x00, 0x00, 0x00, 0x00, 0x00, 0x00, 0x00, 0x00, 0x00,
   0x00, 0x00, 0x00, 0xe0, 0x7f, 0x00, 0x00, 0x00, 0x00, 0x00, 0x00, 0x00,
   0x00, 0x00, 0x00, 0x00, 0x00, 0x00, 0x00, 0xf0, 0x7f, 0x00, 0x00, 0x00,
   0x00, 0x00, 0x00, 0x00, 0x00, 0x00, 0x00, 0x00, 0x00, 0x00, 0x00, 0x70,
   0xf7, 0x00, 0x00, 0x00, 0x00, 0x00, 0x00, 0x00, 0x00, 0x02, 0x00, 0x00,
   0x00, 0x00, 0x00, 0xf0, 0xff, 0x00, 0x00, 0x00, 0x00, 0x00, 0x00, 0x00,
   0x00, 0x00, 0x00, 0x00, 0x00, 0x00, 0x00, 0xf0, 0xfe, 0x00, 0x00, 0x00,
   0x00, 0x00, 0x00, 0x00, 0x00, 0x00, 0x00, 0x00, 0x00, 0x00, 0x00, 0xf8,
   0xf7, 0x00, 0x00, 0x00, 0x00, 0x00, 0x00, 0x00, 0x00, 0x00, 0x02, 0x00,
   0x00, 0x00, 0x00, 0xd0, 0xff, 0x01, 0x00, 0x00, 0x00, 0x00, 0x00, 0x00,
   0x00, 0x00, 0x03, 0x00, 0x00, 0x00, 0x00, 0xf8, 0xef, 0x01, 0x00, 0x00,
   0x00, 0x00, 0x00, 0x00, 0x00, 0x80, 0x02, 0x00, 0x00, 0x00, 0x00, 0xf8,
   0xfe, 0x03, 0x00, 0x00, 0x00, 0x00, 0x00, 0x00, 0x00, 0xd0, 0x03, 0x00,
   0x00, 0x00, 0x00, 0xbc, 0xff, 0x03, 0x00, 0x00, 0x00, 0x00, 0xd0, 0x10,
   0x00, 0x6c, 0x03, 0x00, 0x00, 0x00, 0x00, 0xf8, 0xef, 0x07, 0x00, 0x00,
   0x00, 0x00, 0x00, 0x00, 0x80, 0xfd, 0x02, 0x00, 0x00, 0x00, 0x00, 0xf8,
   0xfe, 0x07, 0x00, 0x00, 0x00, 0x00, 0x00, 0x00, 0xf4, 0xff, 0x03, 0x00,
   0x00, 0x00, 0x00, 0xf8, 0xdf, 0x07, 0x20, 0x01, 0x00, 0x00, 0x00, 0x00,
   0xbf, 0xfb, 0x02, 0x00, 0x00, 0x00, 0x00, 0xe8, 0xfb, 0x03, 0x00, 0x00,
   0x00, 0x00, 0x00, 0xc0, 0xfe, 0xff, 0x03, 0x00, 0x00, 0x00, 0x00, 0xe0,
   0xbf, 0x03, 0x00, 0x08, 0x00, 0x00, 0x00, 0xc0, 0xfb, 0xff, 0x01, 0x00,
   0x00, 0x00, 0x00, 0x40, 0xff, 0x80, 0x00, 0x00, 0x00, 0x00, 0x00, 0xf0,
   0xff, 0x6f, 0x01, 0x00, 0x00, 0x00, 0x00, 0x00, 0x54, 0x00, 0x00, 0x80,
   0x08, 0x00, 0x00, 0xd0, 0xff, 0xff, 0x01, 0x00, 0x00, 0x00, 0x00, 0x00,
   0x00, 0x00, 0x22, 0x10, 0x00, 0x00, 0x00, 0xf8, 0xdf, 0xff, 0x00, 0x00,
   0x00, 0x00, 0x00, 0x00, 0x00, 0x00, 0x80, 0x00, 0x00, 0x00, 0x00, 0xf8,
   0xff, 0xdf, 0x00, 0x00, 0x00, 0x00, 0x00, 0x00, 0x00, 0x22, 0x00, 0x00,
   0x08, 0x00, 0x00, 0xec, 0xfd, 0x7f, 0x00, 0x00, 0x00, 0x00, 0x00, 0x00,
   0x00, 0x00, 0x00, 0x80, 0x00, 0x00, 0x00, 0xfc, 0xbf, 0x7f, 0x00, 0x00,
   0x00, 0x00, 0x22, 0x00, 0x00, 0x00, 0x01, 0x09, 0x10, 0x00, 0x00, 0xfc,
   0xff, 0x1f, 0x00, 0x00, 0x00, 0x00, 0x00, 0x12, 0x21, 0x02, 0x10, 0x00,
   0x00, 0x00, 0x00, 0xf8, 0xff, 0x1f, 0x00, 0x00, 0x00, 0x00, 0x00, 0x00,
   0x00, 0x10, 0x02, 0x10, 0x01, 0x00, 0x00, 0xfe, 0xff, 0x0e, 0x00, 0x00,
   0x00, 0x40, 0x20, 0x00, 0x04, 0x00, 0x00, 0x01, 0x24, 0x00, 0x00, 0xf4,
   0xfe, 0x0f, 0x00, 0x00, 0x00, 0x00, 0x02, 0x10, 0x20, 0x20, 0x10, 0x00,
   0x00, 0x00, 0x00, 0xfc, 0xff, 0x03, 0x00, 0x00, 0x00, 0x00, 0x00, 0x80,
   0x00, 0x02, 0x02, 0x92, 0x40, 0x00, 0x00, 0xf8, 0xfb, 0x01, 0x00, 0x00,
   0x00, 0x00, 0x08, 0x00, 0x40, 0x40, 0x20, 0x00, 0x04, 0x00, 0x00, 0xf0,
   0xff, 0x00, 0x00, 0x00, 0x00, 0x80, 0x00, 0x00, 0x04, 0x08, 0x00, 0x00,
   0x10, 0x01, 0x00, 0xe5, 0x5f, 0x00, 0x00, 0x00, 0x00, 0x00, 0x00, 0x00,
   0x80, 0x80, 0x44, 0x92, 0x00, 0x04, 0x00, 0xe0, 0x3f, 0x00, 0x00, 0x00,
   0x00, 0x00, 0x04, 0x80, 0x10, 0x00, 0x00, 0x00, 0x42, 0x00, 0x00, 0x84,
   0x07, 0x00, 0x00, 0x00, 0x00, 0x40, 0x00, 0x00, 0x04, 0x09, 0x84, 0x08,
   0x08, 0x01, 0x00, 0x20, 0x00, 0x02, 0x00, 0x00, 0x00, 0x00, 0x00, 0x00,
   0x00, 0x90, 0x10, 0x40, 0x10, 0x00, 0x00, 0x00, 0x00, 0x00, 0x00, 0x00,
   0x00, 0x80, 0x00, 0x00, 0x10, 0x01, 0x80, 0x08, 0x40, 0x00, 0x40, 0x00,
   0x80, 0x00, 0x00, 0x00, 0x00, 0x00, 0x01, 0x00, 0x22, 0x80, 0x04, 0x01,
   0x00, 0x00, 0x00, 0x00, 0x20, 0x00, 0x00, 0x00, 0x00, 0x00, 0x00, 0x00,
   0x00, 0x12, 0x10, 0x00, 0x00, 0x00, 0x04, 0x01, 0x0a, 0x00, 0x00, 0x00,
   0x00, 0x00, 0x01, 0x00, 0x40, 0x00, 0x21, 0x00, 0x00, 0x0c, 0x00, 0x00,
   0x00, 0x00, 0x00, 0x00, 0x00, 0x00, 0x00, 0x00, 0x04, 0x12, 0x80, 0x00,
   0x00, 0x16, 0x00, 0x00, 0x01, 0x00, 0x00, 0x00, 0x00, 0x20, 0x01, 0x00,
   0x48, 0x80, 0x04, 0x00, 0x00, 0x5d, 0x08, 0x40, 0x00, 0x00, 0x00, 0x00,
   0x00, 0x00, 0x00, 0x00, 0x00, 0x12, 0x10, 0x40, 0x80, 0x35, 0x00, 0x80,
   0x00, 0x00, 0x00, 0x00, 0x00, 0x00, 0x01, 0x00, 0x49, 0x40, 0x02, 0x10,
   0x40, 0x6b, 0x00, 0x20, 0x20, 0x02, 0x00, 0x00, 0x00, 0x00, 0x00, 0x00,
   0x00, 0x09, 0x00, 0x08, 0xb0, 0xaa, 0x00, 0x50, 0x85, 0x08, 0x00, 0x00,
   0x00, 0x40, 0x02, 0x40, 0x12, 0x20, 0x09, 0x00, 0xa0, 0xda, 0x02, 0x28,
   0x10, 0x51, 0x00, 0x00, 0x00, 0x00, 0x08, 0x00, 0x40, 0x02, 0x00, 0x04,
   0x5c, 0xab, 0x00, 0x94, 0x42, 0x04, 0x01, 0x00, 0x00, 0x00, 0x01, 0x24,
   0x09, 0x48, 0x05, 0x00, 0xaa, 0xaa, 0x03, 0x16, 0x88, 0x20, 0x00, 0x00,
   0x00, 0x00, 0x48, 0x00, 0xa4, 0x04, 0x00, 0x00, 0x55, 0x55, 0x00, 0xa1,
   0x22, 0x8a, 0x00, 0x00, 0x00, 0x00, 0x81, 0xa4, 0x00, 0x90, 0x04, 0x00,
   0xb5, 0xaa, 0x81, 0x05, 0x44, 0x10, 0x00, 0x00, 0x00, 0x00, 0x14, 0x00,
   0x12, 0x00, 0x00, 0x40, 0x55, 0x55, 0x40, 0x92, 0x10, 0xa1, 0x00, 0x00,
   0x00, 0x00, 0x20, 0x55, 0x10, 0x50, 0x05, 0x40, 0x55, 0x15, 0xe0, 0x12,
   0x02, 0x85, 0x00, 0x00, 0x00, 0x00, 0x82, 0x00, 0x01, 0x00, 0x10, 0xb0,
   0xaa, 0x0a, 0x10, 0x48, 0x54, 0x08, 0x00, 0x00, 0x00, 0x00, 0x10, 0x24,
   0x0a, 0x00, 0x02, 0xa0, 0xaa, 0x0a, 0x54, 0x81, 0x00, 0xa2, 0x00, 0x00,
   0x00, 0x00, 0x44, 0x80, 0x00, 0x00, 0x11, 0xa0, 0x4a, 0x02, 0x20, 0x2a,
   0x55, 0x08, 0x00, 0x00, 0x00, 0x00, 0x08, 0x15, 0x05, 0x00, 0x00, 0x40,
   0x55, 0x01, 0x42, 0x00, 0x80, 0x52, 0x00, 0x00, 0x00, 0x00, 0xa0, 0x40,
   0x00, 0x00, 0x04, 0x80, 0x2a, 0x80, 0x80, 0xaa, 0x2a, 0x84, 0x00, 0x00,
   0x00, 0x00, 0x00, 0x14, 0x03, 0x00, 0x28, 0x80, 0xa4, 0x80, 0x20, 0x00,
   0x40, 0x11, 0x00, 0x00, 0x00, 0x00, 0x90, 0x40, 0x00, 0x00, 0x08, 0x00,
   0x2a, 0x80, 0x80, 0xaa, 0x0a, 0x24, 0x00, 0x00, 0x00, 0x00, 0x20, 0x4a,
   0x03, 0x00, 0xa0, 0x00, 0x08, 0x00, 0x80, 0x88, 0x50, 0x09, 0x00, 0x00,
   0x00, 0x00, 0x80, 0x00, 0x00, 0x00, 0x08, 0x00, 0x00, 0x00, 0x40, 0x22,
   0x05, 0x22, 0x00, 0x00, 0x00, 0x00, 0x00, 0x55, 0x03, 0x00, 0x50, 0x01,
   0x00, 0x00, 0x40, 0x24, 0xa8, 0x04, 0x00, 0x00, 0x00, 0x00, 0x00, 0x80,
   0x00, 0x00, 0x04, 0x02, 0x00, 0x00, 0x20, 0x49, 0x05, 0x09, 0x00, 0x00,
   0x00, 0x00, 0x80, 0x2a, 0x03, 0x00, 0x54, 0x04, 0x00, 0x00, 0x08, 0x89,
   0x50, 0x02, 0x00, 0x00, 0x00, 0x00, 0x00, 0x80, 0x00, 0x00, 0x45, 0x11,
   0x00, 0x00, 0xa0, 0x24, 0x25, 0x09, 0x00, 0x00, 0x00, 0x00, 0x00, 0x95,
   0x06, 0x80, 0x14, 0x44, 0x00, 0x00, 0x88, 0x48, 0x08, 0x01, 0x00, 0x00,
   0x00, 0x00, 0x00, 0x20, 0x5a, 0xaa, 0xa2, 0x12, 0x01, 0x00, 0x52, 0xa2,
   0x52, 0x02, 0x00, 0x00, 0x00, 0x00, 0x00, 0xa4, 0xa8, 0x2a, 0x08, 0x52,
   0x04, 0x80, 0x44, 0x8a, 0x44, 0x00, 0x01, 0x00, 0x00, 0x00, 0x00, 0x00,
   0x55, 0x40, 0xa5, 0x88, 0x52, 0x2a, 0x89, 0x50, 0xaa, 0x00, 0x00, 0x00,
   0x00, 0x00, 0x00, 0x28, 0x81, 0x4a, 0x10, 0x35, 0x84, 0x20, 0x29, 0x45,
   0x02, 0x00, 0x00, 0x00, 0x00, 0x00, 0x00, 0x80, 0x54, 0x94, 0x4a, 0x7f,
   0x29, 0x45, 0x42, 0x2a, 0x55, 0x00, 0x00, 0x00, 0x00, 0x00, 0x40, 0x00,
   0x45, 0x21, 0x11, 0xff, 0x42, 0x94, 0x54, 0x22, 0x11, 0x00, 0x00, 0x00,
   0x00, 0x00, 0x80, 0x00, 0x28, 0x4a, 0xca, 0xff, 0x29, 0x49, 0x89, 0x94,
   0x0a, 0x00, 0x00, 0x00, 0x00, 0x00, 0x00, 0x01, 0xa2, 0x92, 0x90, 0xff,
   0x4b, 0x12, 0xa9, 0x24, 0x02, 0x08, 0x00, 0x00, 0x00, 0x00, 0x00, 0x02,
   0x08, 0x24, 0xe5, 0xff, 0x91, 0xa4, 0x92, 0x52, 0x01, 0x00, 0x00, 0x00,
   0x00, 0x00, 0x00, 0x04, 0x50, 0x25, 0xc9, 0xff, 0x25, 0x25, 0x92, 0x14,
   0x01, 0x02, 0x00, 0x00, 0x00, 0x00, 0x00, 0x00, 0x40, 0x54, 0x92, 0xff,
   0x55, 0x48, 0x25, 0xa9, 0x00, 0x01, 0x00, 0x00, 0x00, 0x00, 0x00, 0x00,
   0x80, 0x84, 0xa4, 0xff, 0x85, 0x52, 0x54, 0x02, 0x00, 0x00, 0x00, 0x00,
   0x00, 0x00, 0x00, 0x40, 0x00, 0xaa, 0xaa, 0xfe, 0xa9, 0x8a, 0xa2, 0x0a,
   0x00, 0x00, 0x00, 0x00, 0x00, 0x00, 0x00, 0x80, 0x00, 0x90, 0xa4, 0x7a,
   0x92, 0xa8, 0x8a, 0x00, 0x10, 0x00, 0x00, 0x00, 0x00, 0x00, 0x00, 0x00,
   0x00, 0x20, 0x49, 0x85, 0x54, 0x15, 0x55, 0x00, 0x00, 0x00, 0x00, 0x00,
   0x00, 0x00, 0x00, 0x00, 0x00, 0x00, 0x2a, 0x55, 0x45, 0x52, 0x11, 0x00,
   0x02, 0x00, 0x00, 0x00, 0x00, 0x00, 0x00, 0x00, 0x08, 0x00, 0x50, 0x2a,
   0xa9, 0x2a, 0x02, 0x00, 0x00, 0x00, 0x00, 0x00, 0x00, 0x00, 0x00, 0x00,
   0x28, 0x00, 0x80, 0x48, 0x95, 0x48, 0x00, 0x00, 0x00, 0x00, 0x00, 0x00,
   0x00, 0x00, 0x00, 0x00, 0xd0, 0x00, 0x00, 0x92, 0x24, 0x01, 0x00, 0x00,
   0x00, 0x00, 0x00, 0x00, 0x00, 0x00, 0x00, 0x00, 0x50, 0x01, 0x00, 0x00,
   0x00, 0x00, 0x00, 0x00, 0x00, 0x00, 0x00, 0x00, 0x00, 0x00, 0x00, 0x00,
   0x00, 0x04, 0x00, 0x00, 0x00, 0x00, 0x00, 0x00, 0x00, 0x00, 0x00, 0x00,
   0x00, 0x00, 0x00, 0x00, 0x14, 0xf0, 0x00, 0x00, 0x00, 0x00, 0x00, 0x00,
   0x00, 0x00, 0x00, 0x00, 0x00, 0x00, 0x00, 0x00, 0x00, 0x00, 0x08, 0x00,
   0x00, 0x00, 0x01, 0x00, 0x00, 0x00, 0x00, 0x00, 0x00, 0x00, 0x00, 0x00,
   0x00, 0x04, 0x80, 0x01, 0x00, 0x08, 0x00, 0x00, 0x00, 0x00, 0x00, 0x00,
   0x00, 0x00, 0x00, 0x00, 0x00, 0x00, 0x00, 0x00, 0x00, 0x00, 0x00, 0x00,
   0x00, 0x00, 0x00, 0x00, 0x00, 0x00, 0x00, 0x00, 0x80, 0x00, 0x00, 0x00,
   0x00, 0x00, 0x00, 0x00, 0x00, 0x00, 0x00, 0x00, 0x00, 0x00, 0x00, 0x40,
   0x20, 0x00, 0x00, 0x00, 0x00, 0x00, 0x00, 0x00, 0x00, 0x00, 0x00, 0x00,
   0x00, 0x00, 0x00, 0x00, 0x07, 0x00, 0x00, 0x00, 0x00, 0x00, 0x00, 0x00,
   0x00, 0x00, 0x00, 0x00, 0x00, 0x00, 0x00, 0x00, 0x00, 0x00, 0x00, 0x00,
   0x00, 0x00, 0x00, 0x00, 0x00, 0x00, 0x00, 0x00, 0x00, 0x00, 0x00, 0x00,
   0x00, 0x00, 0x00, 0x00, 0x00, 0x00, 0x00, 0x00, 0x00, 0x00, 0x00, 0x00,
   0x00, 0x00, 0x00, 0x00, 0x00, 0x00, 0x00, 0x00, 0x00, 0x00, 0x00, 0x00,
   0x00, 0x00, 0x00, 0x00, 0x00, 0x00, 0x00, 0x00, 0x00, 0x00, 0x00, 0x00,
   0x00, 0x00, 0x00, 0x00, 0x00, 0x00, 0x00, 0x00 };
